<svg xmlns="http://www.w3.org/2000/svg" width="16" height="16" viewBox="0 0 240 240">
  <path fill="currentColor" fill-rule="evenodd" d="M120 0c66.274 0 120 53.726 120 120s-53.726 120-120 120S0 186.274 0 120 53.726 0 120 0Zm37.954 57.56c3.272-1.772 7.388-2.83 11.623-1.679.798.185 1.503.405 2.2.661l3.422 1.254-.942 3.521c-.378 1.408-.712 2.655-1.089 4.062l-.91 3.458-3.483-.477a6.27 6.27 0 0 1-.755-.052c-1.294.027-2.432.668-3.558 2.544-.873 1.453-1.552 3.395-2.042 5.609 10.36 6.75 17.223 18.441 17.223 31.743 0 6.152-1.472 11.97-4.083 17.115-10.535 23.353-50.533 70.62-121.409 57.066-3.66-.7-5.707-3.675-5.914-6.656-.203-2.927 1.33-6.086 4.605-7.484 18.858-8.047 29.285-16.551 36.231-26.88 7.055-10.492 10.76-23.174 15.533-40.403 3.382-17.447 18.733-30.622 37.171-30.623h1.032c1.285.035 2.553.136 3.803.296.971-1.984 2.102-3.93 3.437-5.823l.354-.515c1.818-2.565 4.469-5.021 7.551-6.69Z"/>
</svg>
